<svg width="261" height="134" viewBox="0 0 261 134" fill="none" xmlns="http://www.w3.org/2000/svg">
<rect width="261" height="133.466" rx="14.1" fill="#F9F9FA"/>
<path d="M30.7754 81.5708V72.0572C30.7754 71.6412 30.7882 71.2412 30.8138 70.8572C30.8394 70.4732 30.8746 70.0828 30.9194 69.686L30.9482 68.294H32.6474V81.5708H30.7754ZM26.8778 82.2524V80.6492H36.1034V82.2524H26.8778ZM26.1194 71.7596V70.0412C26.6762 70.1884 27.2074 70.246 27.713 70.214C28.2186 70.182 28.6826 70.0796 29.105 69.9068C29.5274 69.734 29.8954 69.51 30.209 69.2348C30.529 68.9532 30.7754 68.6396 30.9482 68.294L30.9194 69.686C30.8106 70.262 30.5706 70.7196 30.1994 71.0588C29.8346 71.3916 29.4058 71.6284 28.913 71.7692C28.4266 71.91 27.9338 71.974 27.4346 71.9612C26.9354 71.9484 26.497 71.8812 26.1194 71.7596ZM37.7183 82.2524C37.9167 82.022 38.0895 81.8204 38.2367 81.6476C38.3903 81.4748 38.5439 81.3052 38.6975 81.1388C38.8511 80.966 39.0271 80.774 39.2255 80.5628C39.4239 80.3516 39.6639 80.0924 39.9455 79.7852C40.2271 79.478 40.5727 79.1004 40.9823 78.6524C41.3919 78.2044 41.8847 77.6572 42.4607 77.0108C43.0751 76.326 43.5967 75.7212 44.0255 75.1964C44.4543 74.6652 44.7807 74.1564 45.0047 73.67C45.2287 73.1836 45.3407 72.6652 45.3407 72.1148C45.3407 71.3596 45.1327 70.7516 44.7167 70.2908C44.3071 69.83 43.6735 69.5996 42.8159 69.5996C42.3231 69.5996 41.8655 69.6924 41.4431 69.878C41.0207 70.0636 40.6783 70.3644 40.4159 70.7804C40.1599 71.1964 40.0223 71.7532 40.0031 72.4508C39.9967 72.534 39.9967 72.6236 40.0031 72.7196C40.0095 72.8092 40.0159 72.902 40.0223 72.998H38.2655C38.2463 72.8828 38.2303 72.7676 38.2175 72.6524C38.2111 72.5372 38.2079 72.4284 38.2079 72.326C38.2079 71.5836 38.3263 70.9436 38.5631 70.406C38.7999 69.862 39.1295 69.414 39.5519 69.062C39.9743 68.7036 40.4671 68.438 41.0303 68.2652C41.5999 68.0924 42.2111 68.006 42.8639 68.006C44.2463 68.006 45.3087 68.3644 46.0511 69.0812C46.7999 69.7916 47.1743 70.7676 47.1743 72.0092C47.1743 72.7324 47.0527 73.3852 46.8095 73.9676C46.5663 74.5436 46.2335 75.1004 45.8111 75.638C45.3887 76.1692 44.9087 76.7356 44.3711 77.3372C43.8399 77.9324 43.3887 78.4316 43.0175 78.8348C42.6463 79.238 42.3327 79.574 42.0767 79.8428C41.8271 80.1052 41.6159 80.3324 41.4431 80.5244C41.2767 80.71 41.1295 80.8892 41.0015 81.062C41.1999 80.8572 41.4367 80.7388 41.7119 80.7068C41.9871 80.6684 42.3647 80.6492 42.8447 80.6492H47.3951V82.2524H37.7183ZM54.3668 82.5404C53.6756 82.5404 53.0292 82.4508 52.4276 82.2716C51.826 82.0988 51.298 81.83 50.8436 81.4652C50.3956 81.094 50.05 80.6236 49.8068 80.054C49.57 79.4844 49.4644 78.806 49.49 78.0188H51.3236C51.3172 78.934 51.5668 79.654 52.0724 80.1788C52.578 80.6972 53.3428 80.9532 54.3668 80.9468C55.25 80.9404 55.9732 80.7228 56.5364 80.294C57.106 79.8652 57.3908 79.2668 57.3908 78.4988C57.3908 77.5452 57.1028 76.8604 56.5268 76.4444C55.9572 76.0284 55.2116 75.8204 54.29 75.8204H52.754V74.2268H54.3188C54.8372 74.2268 55.2852 74.118 55.6628 73.9004C56.0404 73.6764 56.3316 73.382 56.5364 73.0172C56.7412 72.646 56.8436 72.246 56.8436 71.8172C56.8436 71.1132 56.6228 70.5692 56.1812 70.1852C55.746 69.7948 55.1412 69.5996 54.3668 69.5996C53.586 69.5932 52.9588 69.8108 52.4852 70.2524C52.0116 70.6876 51.8036 71.3692 51.8612 72.2972H50.018C50.0052 71.3244 50.1716 70.5212 50.5172 69.8876C50.8628 69.254 51.3652 68.7836 52.0244 68.4764C52.6836 68.1628 53.4676 68.006 54.3764 68.006C55.3364 68.006 56.1332 68.1628 56.7668 68.4764C57.4004 68.79 57.874 69.2284 58.1876 69.7916C58.5012 70.3548 58.658 71.0076 58.658 71.75C58.658 72.2172 58.5652 72.6812 58.3796 73.142C58.194 73.5964 57.8964 73.9932 57.4868 74.3324C57.0836 74.6652 56.546 74.8828 55.874 74.9852C56.9492 75.0684 57.7716 75.4076 58.3412 76.0028C58.9172 76.598 59.2052 77.4268 59.2052 78.4892C59.2052 79.3596 59.0004 80.0988 58.5908 80.7068C58.1876 81.3084 57.6212 81.766 56.8916 82.0796C56.1684 82.3868 55.3268 82.5404 54.3668 82.5404ZM60.5417 79.8236L65.2361 68.294H67.3097L63.3641 77.6924L63.0665 78.2204H70.8329L70.8233 79.8236H60.5417ZM67.3001 82.2524L67.3097 78.9116L67.9913 78.2204C67.7673 78.2204 67.6073 78.1468 67.5113 77.9996C67.4153 77.8524 67.3577 77.6668 67.3385 77.4428C67.3193 77.2188 67.3097 76.9916 67.3097 76.7612L67.3001 73.814L69.1529 73.7852V82.2524H67.3001Z" fill="#464555"/>
<path d="M84.3412 82.5404C83.2916 82.5404 82.3988 82.3356 81.6628 81.926C80.9268 81.51 80.3764 80.9724 80.0116 80.3132C79.6532 79.6476 79.5092 78.9436 79.5796 78.2012H81.4036C81.3908 78.63 81.4804 79.0492 81.6724 79.4588C81.8708 79.8684 82.194 80.2076 82.642 80.4764C83.09 80.7388 83.682 80.87 84.418 80.87C84.9492 80.87 85.4388 80.774 85.8868 80.582C86.3412 80.3836 86.706 80.0636 86.9812 79.622C87.2564 79.1804 87.394 78.5916 87.394 77.8556C87.394 76.8828 87.1412 76.1436 86.6356 75.638C86.13 75.1324 85.394 74.8796 84.4276 74.8796C83.8068 74.8796 83.2276 74.982 82.69 75.1868C82.1524 75.3916 81.6948 75.6668 81.3172 76.0124L79.858 75.4748L80.7892 68.294H88.5652V69.9452H82.3828L81.4516 75.014C81.714 74.47 82.1524 74.054 82.7668 73.766C83.3812 73.4716 84.1172 73.3244 84.9748 73.3244C85.5188 73.3244 86.0468 73.4012 86.5588 73.5548C87.0708 73.702 87.5284 73.9452 87.9316 74.2844C88.3412 74.6236 88.6644 75.078 88.9012 75.6476C89.1444 76.2108 89.266 76.9052 89.266 77.7308C89.266 78.6908 89.0676 79.5324 88.6708 80.2556C88.274 80.9788 87.7076 81.542 86.9716 81.9452C86.242 82.342 85.3652 82.5404 84.3412 82.5404ZM96.0265 82.5404C95.1305 82.5404 94.3113 82.3324 93.5689 81.9164C92.8329 81.494 92.2441 80.8604 91.8025 80.0156C91.3673 79.1708 91.1497 78.118 91.1497 76.8572C91.1497 75.7948 91.3033 74.8188 91.6105 73.9292C91.9177 73.0396 92.3081 72.2364 92.7817 71.5196C93.2553 70.8028 93.7449 70.1756 94.2505 69.638C94.7561 69.1004 95.2041 68.6524 95.5945 68.294H98.2921C97.8505 68.6332 97.3929 69.0044 96.9193 69.4076C96.4457 69.8044 95.9817 70.2396 95.5273 70.7132C95.0793 71.1804 94.6697 71.6892 94.2985 72.2396C93.9337 72.79 93.6329 73.382 93.3961 74.0156C93.1657 74.6492 93.0345 75.3308 93.0025 76.0604L92.9161 75.8876C93.0185 75.4524 93.1817 75.062 93.4057 74.7164C93.6361 74.3644 93.9177 74.0636 94.2505 73.814C94.5897 73.5644 94.9705 73.3724 95.3929 73.238C95.8217 73.1036 96.2857 73.0364 96.7849 73.0364C97.6297 73.0364 98.3561 73.2284 98.9641 73.6124C99.5785 73.9964 100.049 74.5372 100.375 75.2348C100.708 75.926 100.875 76.742 100.875 77.6828C100.875 78.438 100.743 79.1164 100.481 79.718C100.219 80.3132 99.8569 80.822 99.3961 81.2444C98.9417 81.6668 98.4233 81.99 97.8409 82.214C97.2585 82.4316 96.6537 82.5404 96.0265 82.5404ZM96.0649 80.9084C96.6473 80.9084 97.1593 80.7868 97.6009 80.5436C98.0489 80.3004 98.3977 79.942 98.6473 79.4684C98.8969 78.9884 99.0217 78.4028 99.0217 77.7116C99.0217 77.1036 98.9353 76.5692 98.7625 76.1084C98.5961 75.6412 98.3177 75.2764 97.9273 75.014C97.5369 74.7516 97.0153 74.6204 96.3625 74.6204C95.7545 74.6204 95.2393 74.7004 94.8169 74.8604C94.3945 75.014 94.0425 75.2092 93.7609 75.446C93.4857 75.6764 93.2617 75.9068 93.0889 76.1372C93.0633 76.1884 93.0441 76.3196 93.0313 76.5308C93.0185 76.742 93.0121 76.9276 93.0121 77.0876C93.0121 77.8044 93.1177 78.454 93.3289 79.0364C93.5401 79.6124 93.8697 80.07 94.3177 80.4092C94.7657 80.742 95.3481 80.9084 96.0649 80.9084ZM104.64 82.2524L109.459 71.2028C109.651 70.7612 109.907 70.4252 110.227 70.1948C110.553 69.9644 110.969 69.8492 111.475 69.8492L111.6 69.9932H102.451V68.294H111.456H112.473L106.665 82.2524H104.64ZM118.888 82.5404C117.986 82.5404 117.167 82.39 116.431 82.0892C115.701 81.782 115.119 81.3308 114.684 80.7356C114.255 80.134 114.04 79.398 114.04 78.5276C114.04 77.4716 114.322 76.646 114.885 76.0508C115.455 75.4492 116.293 75.094 117.4 74.9852C116.741 74.902 116.204 74.6972 115.788 74.3708C115.372 74.038 115.064 73.6476 114.866 73.1996C114.674 72.7516 114.578 72.3036 114.578 71.8556C114.578 70.6588 114.946 69.718 115.682 69.0332C116.424 68.3484 117.493 68.006 118.888 68.006C120.296 68.006 121.368 68.3516 122.104 69.0428C122.84 69.734 123.208 70.6716 123.208 71.8556C123.208 72.3036 123.109 72.7548 122.911 73.2092C122.719 73.6572 122.415 74.0476 121.999 74.3804C121.589 74.7068 121.055 74.9148 120.396 75.0044C121.484 75.1068 122.312 75.4588 122.882 76.0604C123.452 76.6556 123.736 77.478 123.736 78.5276C123.736 79.398 123.519 80.134 123.084 80.7356C122.648 81.3308 122.063 81.782 121.327 82.0892C120.597 82.39 119.784 82.5404 118.888 82.5404ZM118.888 80.9084C119.765 80.9084 120.492 80.7004 121.068 80.2844C121.644 79.862 121.932 79.2604 121.932 78.4796C121.932 77.5836 121.647 76.918 121.077 76.4828C120.508 76.0476 119.778 75.83 118.888 75.83C117.999 75.83 117.266 76.0444 116.69 76.4732C116.12 76.902 115.836 77.5708 115.836 78.4796C115.836 79.2604 116.12 79.862 116.69 80.2844C117.266 80.7004 117.999 80.9084 118.888 80.9084ZM118.888 74.2172C119.407 74.2172 119.855 74.1084 120.232 73.8908C120.61 73.6668 120.901 73.3756 121.106 73.0172C121.317 72.6588 121.423 72.2684 121.423 71.846C121.423 71.1292 121.199 70.5756 120.751 70.1852C120.303 69.7948 119.682 69.5996 118.888 69.5996C118.095 69.5996 117.474 69.7948 117.026 70.1852C116.578 70.5756 116.354 71.1292 116.354 71.846C116.354 72.2684 116.444 72.6588 116.623 73.0172C116.808 73.3756 117.09 73.6668 117.468 73.8908C117.845 74.1084 118.319 74.2172 118.888 74.2172Z" fill="#464555"/>
<path d="M135.016 82.2524C135.388 81.9644 135.804 81.622 136.264 81.2252C136.725 80.8284 137.192 80.3868 137.666 79.9004C138.14 79.4076 138.578 78.8732 138.981 78.2972C139.384 77.7148 139.714 77.1004 139.97 76.454C140.226 75.8012 140.367 75.1164 140.392 74.3996L140.536 74.4092C140.421 74.8764 140.252 75.302 140.028 75.686C139.81 76.0636 139.544 76.3932 139.231 76.6748C138.917 76.95 138.562 77.1644 138.165 77.318C137.775 77.4652 137.349 77.5388 136.888 77.5388C136.037 77.5388 135.276 77.3404 134.604 76.9436C133.938 76.5468 133.413 75.9964 133.029 75.2924C132.652 74.5884 132.46 73.7756 132.453 72.854C132.453 72.054 132.584 71.3532 132.847 70.7516C133.109 70.1436 133.471 69.638 133.932 69.2348C134.392 68.8252 134.917 68.518 135.506 68.3132C136.095 68.1084 136.709 68.006 137.349 68.006C138.258 68.006 139.08 68.2076 139.816 68.6108C140.559 69.014 141.148 69.638 141.583 70.4828C142.024 71.3212 142.245 72.3996 142.245 73.718C142.245 74.7804 142.088 75.7628 141.775 76.6652C141.461 77.5676 141.064 78.3804 140.584 79.1036C140.111 79.8204 139.621 80.4444 139.116 80.9756C138.61 81.5068 138.165 81.9324 137.781 82.2524H135.016ZM137.234 75.926C137.746 75.926 138.194 75.8492 138.578 75.6956C138.968 75.5356 139.304 75.3276 139.586 75.0716C139.868 74.8092 140.101 74.5308 140.287 74.2364C140.319 74.1852 140.338 74.0732 140.344 73.9004C140.357 73.7212 140.364 73.5356 140.364 73.3436C140.364 72.6268 140.245 71.99 140.008 71.4332C139.772 70.8764 139.423 70.4412 138.962 70.1276C138.508 69.8076 137.951 69.6476 137.292 69.6476C136.703 69.6476 136.181 69.7692 135.727 70.0124C135.279 70.2492 134.93 70.598 134.68 71.0588C134.431 71.5132 134.306 72.0636 134.306 72.71C134.312 73.6764 134.565 74.454 135.064 75.0428C135.57 75.6316 136.293 75.926 137.234 75.926ZM148.555 81.5708V72.0572C148.555 71.6412 148.567 71.2412 148.593 70.8572C148.619 70.4732 148.654 70.0828 148.699 69.686L148.727 68.294H150.427V81.5708H148.555ZM144.657 82.2524V80.6492H153.883V82.2524H144.657ZM143.899 71.7596V70.0412C144.455 70.1884 144.987 70.246 145.492 70.214C145.998 70.182 146.462 70.0796 146.884 69.9068C147.307 69.734 147.675 69.51 147.988 69.2348C148.308 68.9532 148.555 68.6396 148.727 68.294L148.699 69.686C148.59 70.262 148.35 70.7196 147.979 71.0588C147.614 71.3916 147.185 71.6284 146.692 71.7692C146.206 71.91 145.713 71.974 145.214 71.9612C144.715 71.9484 144.276 71.8812 143.899 71.7596ZM155.497 82.2524C155.696 82.022 155.869 81.8204 156.016 81.6476C156.169 81.4748 156.323 81.3052 156.477 81.1388C156.63 80.966 156.806 80.774 157.005 80.5628C157.203 80.3516 157.443 80.0924 157.725 79.7852C158.006 79.478 158.352 79.1004 158.761 78.6524C159.171 78.2044 159.664 77.6572 160.24 77.0108C160.854 76.326 161.376 75.7212 161.805 75.1964C162.233 74.6652 162.56 74.1564 162.784 73.67C163.008 73.1836 163.12 72.6652 163.12 72.1148C163.12 71.3596 162.912 70.7516 162.496 70.2908C162.086 69.83 161.453 69.5996 160.595 69.5996C160.102 69.5996 159.645 69.6924 159.222 69.878C158.8 70.0636 158.457 70.3644 158.195 70.7804C157.939 71.1964 157.801 71.7532 157.782 72.4508C157.776 72.534 157.776 72.6236 157.782 72.7196C157.789 72.8092 157.795 72.902 157.801 72.998H156.045C156.025 72.8828 156.009 72.7676 155.997 72.6524C155.99 72.5372 155.987 72.4284 155.987 72.326C155.987 71.5836 156.105 70.9436 156.342 70.406C156.579 69.862 156.909 69.414 157.331 69.062C157.753 68.7036 158.246 68.438 158.809 68.2652C159.379 68.0924 159.99 68.006 160.643 68.006C162.025 68.006 163.088 68.3644 163.83 69.0812C164.579 69.7916 164.953 70.7676 164.953 72.0092C164.953 72.7324 164.832 73.3852 164.589 73.9676C164.345 74.5436 164.013 75.1004 163.59 75.638C163.168 76.1692 162.688 76.7356 162.15 77.3372C161.619 77.9324 161.168 78.4316 160.797 78.8348C160.425 79.238 160.112 79.574 159.856 79.8428C159.606 80.1052 159.395 80.3324 159.222 80.5244C159.056 80.71 158.909 80.8892 158.781 81.062C158.979 80.8572 159.216 80.7388 159.491 80.7068C159.766 80.6684 160.144 80.6492 160.624 80.6492H165.174V82.2524H155.497ZM172.146 82.5404C171.455 82.5404 170.808 82.4508 170.207 82.2716C169.605 82.0988 169.077 81.83 168.623 81.4652C168.175 81.094 167.829 80.6236 167.586 80.054C167.349 79.4844 167.244 78.806 167.269 78.0188H169.103C169.096 78.934 169.346 79.654 169.852 80.1788C170.357 80.6972 171.122 80.9532 172.146 80.9468C173.029 80.9404 173.752 80.7228 174.316 80.294C174.885 79.8652 175.17 79.2668 175.17 78.4988C175.17 77.5452 174.882 76.8604 174.306 76.4444C173.736 76.0284 172.991 75.8204 172.069 75.8204H170.533V74.2268H172.098C172.616 74.2268 173.064 74.118 173.442 73.9004C173.82 73.6764 174.111 73.382 174.316 73.0172C174.52 72.646 174.623 72.246 174.623 71.8172C174.623 71.1132 174.402 70.5692 173.96 70.1852C173.525 69.7948 172.92 69.5996 172.146 69.5996C171.365 69.5932 170.738 69.8108 170.264 70.2524C169.791 70.6876 169.583 71.3692 169.64 72.2972H167.797C167.784 71.3244 167.951 70.5212 168.296 69.8876C168.642 69.254 169.144 68.7836 169.804 68.4764C170.463 68.1628 171.247 68.006 172.156 68.006C173.116 68.006 173.912 68.1628 174.546 68.4764C175.18 68.79 175.653 69.2284 175.967 69.7916C176.28 70.3548 176.437 71.0076 176.437 71.75C176.437 72.2172 176.344 72.6812 176.159 73.142C175.973 73.5964 175.676 73.9932 175.266 74.3324C174.863 74.6652 174.325 74.8828 173.653 74.9852C174.728 75.0684 175.551 75.4076 176.12 76.0028C176.696 76.598 176.984 77.4268 176.984 78.4892C176.984 79.3596 176.78 80.0988 176.37 80.7068C175.967 81.3084 175.4 81.766 174.671 82.0796C173.948 82.3868 173.106 82.5404 172.146 82.5404Z" fill="#464555"/>
<path d="M185.405 79.8236L190.099 68.294H192.173L188.227 77.6924L187.929 78.2204H195.696L195.686 79.8236H185.405ZM192.163 82.2524L192.173 78.9116L192.854 78.2204C192.63 78.2204 192.47 78.1468 192.374 77.9996C192.278 77.8524 192.221 77.6668 192.201 77.4428C192.182 77.2188 192.173 76.9916 192.173 76.7612L192.163 73.814L194.016 73.7852V82.2524H192.163ZM202.12 82.5404C201.071 82.5404 200.178 82.3356 199.442 81.926C198.706 81.51 198.156 80.9724 197.791 80.3132C197.432 79.6476 197.288 78.9436 197.359 78.2012H199.183C199.17 78.63 199.26 79.0492 199.452 79.4588C199.65 79.8684 199.973 80.2076 200.421 80.4764C200.869 80.7388 201.461 80.87 202.197 80.87C202.728 80.87 203.218 80.774 203.666 80.582C204.12 80.3836 204.485 80.0636 204.76 79.622C205.036 79.1804 205.173 78.5916 205.173 77.8556C205.173 76.8828 204.92 76.1436 204.415 75.638C203.909 75.1324 203.173 74.8796 202.207 74.8796C201.586 74.8796 201.007 74.982 200.469 75.1868C199.932 75.3916 199.474 75.6668 199.096 76.0124L197.637 75.4748L198.568 68.294H206.344V69.9452H200.162L199.231 75.014C199.493 74.47 199.932 74.054 200.546 73.766C201.16 73.4716 201.896 73.3244 202.754 73.3244C203.298 73.3244 203.826 73.4012 204.338 73.5548C204.85 73.702 205.308 73.9452 205.711 74.2844C206.12 74.6236 206.444 75.078 206.68 75.6476C206.924 76.2108 207.045 76.9052 207.045 77.7308C207.045 78.6908 206.847 79.5324 206.45 80.2556C206.053 80.9788 205.487 81.542 204.751 81.9452C204.021 82.342 203.144 82.5404 202.12 82.5404ZM213.806 82.5404C212.91 82.5404 212.09 82.3324 211.348 81.9164C210.612 81.494 210.023 80.8604 209.582 80.0156C209.146 79.1708 208.929 78.118 208.929 76.8572C208.929 75.7948 209.082 74.8188 209.39 73.9292C209.697 73.0396 210.087 72.2364 210.561 71.5196C211.034 70.8028 211.524 70.1756 212.03 69.638C212.535 69.1004 212.983 68.6524 213.374 68.294H216.071C215.63 68.6332 215.172 69.0044 214.698 69.4076C214.225 69.8044 213.761 70.2396 213.306 70.7132C212.858 71.1804 212.449 71.6892 212.078 72.2396C211.713 72.79 211.412 73.382 211.175 74.0156C210.945 74.6492 210.814 75.3308 210.782 76.0604L210.695 75.8876C210.798 75.4524 210.961 75.062 211.185 74.7164C211.415 74.3644 211.697 74.0636 212.03 73.814C212.369 73.5644 212.75 73.3724 213.172 73.238C213.601 73.1036 214.065 73.0364 214.564 73.0364C215.409 73.0364 216.135 73.2284 216.743 73.6124C217.358 73.9964 217.828 74.5372 218.154 75.2348C218.487 75.926 218.654 76.742 218.654 77.6828C218.654 78.438 218.522 79.1164 218.26 79.718C217.998 80.3132 217.636 80.822 217.175 81.2444C216.721 81.6668 216.202 81.99 215.62 82.214C215.038 82.4316 214.433 82.5404 213.806 82.5404ZM213.844 80.9084C214.426 80.9084 214.938 80.7868 215.38 80.5436C215.828 80.3004 216.177 79.942 216.426 79.4684C216.676 78.9884 216.801 78.4028 216.801 77.7116C216.801 77.1036 216.714 76.5692 216.542 76.1084C216.375 75.6412 216.097 75.2764 215.706 75.014C215.316 74.7516 214.794 74.6204 214.142 74.6204C213.534 74.6204 213.018 74.7004 212.596 74.8604C212.174 75.014 211.822 75.2092 211.54 75.446C211.265 75.6764 211.041 75.9068 210.868 76.1372C210.842 76.1884 210.823 76.3196 210.81 76.5308C210.798 76.742 210.791 76.9276 210.791 77.0876C210.791 77.8044 210.897 78.454 211.108 79.0364C211.319 79.6124 211.649 80.07 212.097 80.4092C212.545 80.742 213.127 80.9084 213.844 80.9084ZM222.419 82.2524L227.238 71.2028C227.43 70.7612 227.686 70.4252 228.006 70.1948C228.333 69.9644 228.749 69.8492 229.254 69.8492L229.379 69.9932H220.23V68.294H229.235H230.253L224.445 82.2524H222.419Z" fill="#464555"/>
<path d="M29.153 104.568C28.4746 104.568 27.8922 104.424 27.4058 104.136C26.9194 103.841 26.545 103.435 26.2826 102.916C26.0202 102.392 25.889 101.787 25.889 101.102C25.889 100.417 26.0202 99.8124 26.2826 99.2876C26.545 98.7628 26.9194 98.3532 27.4058 98.0588C27.8922 97.7644 28.4746 97.6172 29.153 97.6172C29.9594 97.6172 30.6186 97.8188 31.1306 98.222C31.649 98.6188 31.9722 99.1788 32.1002 99.902H30.7466C30.6634 99.5372 30.4842 99.2524 30.209 99.0476C29.9402 98.8364 29.5818 98.7308 29.1338 98.7308C28.513 98.7308 28.0266 98.942 27.6746 99.3644C27.3226 99.7868 27.1466 100.366 27.1466 101.102C27.1466 101.838 27.3226 102.417 27.6746 102.84C28.0266 103.256 28.513 103.464 29.1338 103.464C29.5818 103.464 29.9402 103.368 30.209 103.176C30.4842 102.977 30.6634 102.705 30.7466 102.36H32.1002C31.9722 103.051 31.649 103.592 31.1306 103.982C30.6186 104.372 29.9594 104.568 29.153 104.568ZM34.8008 104.568C34.3912 104.568 34.0552 104.504 33.7928 104.376C33.5304 104.241 33.3352 104.065 33.2072 103.848C33.0792 103.63 33.0152 103.39 33.0152 103.128C33.0152 102.686 33.188 102.328 33.5336 102.052C33.8792 101.777 34.3976 101.64 35.0888 101.64H36.2984V101.524C36.2984 101.198 36.2056 100.958 36.02 100.804C35.8344 100.651 35.604 100.574 35.3288 100.574C35.0792 100.574 34.8616 100.635 34.676 100.756C34.4904 100.872 34.3752 101.044 34.3304 101.275H33.1304C33.1624 100.929 33.2776 100.628 33.476 100.372C33.6808 100.116 33.9432 99.9212 34.2632 99.7868C34.5832 99.646 34.9416 99.5756 35.3384 99.5756C36.0168 99.5756 36.5512 99.7452 36.9416 100.084C37.332 100.424 37.5272 100.904 37.5272 101.524V104.452H36.4808L36.3656 103.684C36.2248 103.94 36.0264 104.152 35.7704 104.318C35.5208 104.484 35.1976 104.568 34.8008 104.568ZM35.0792 103.608C35.4312 103.608 35.7032 103.492 35.8952 103.262C36.0936 103.032 36.2184 102.747 36.2696 102.408H35.2232C34.8968 102.408 34.6632 102.468 34.5224 102.59C34.3816 102.705 34.3112 102.849 34.3112 103.022C34.3112 103.208 34.3816 103.352 34.5224 103.454C34.6632 103.556 34.8488 103.608 35.0792 103.608ZM38.6998 104.452V99.6908H39.7942L39.9094 100.584C40.0822 100.276 40.3158 100.033 40.6102 99.854C40.911 99.6684 41.263 99.5756 41.6662 99.5756V100.872H41.3206C41.0518 100.872 40.8118 100.913 40.6006 100.996C40.3894 101.08 40.223 101.224 40.1014 101.428C39.9862 101.633 39.9286 101.918 39.9286 102.283V104.452H38.6998ZM44.6105 104.568C44.1625 104.568 43.7625 104.459 43.4105 104.241C43.0585 104.024 42.7801 103.726 42.5753 103.348C42.3705 102.971 42.2681 102.542 42.2681 102.062C42.2681 101.582 42.3705 101.156 42.5753 100.785C42.7801 100.408 43.0585 100.113 43.4105 99.902C43.7625 99.6844 44.1625 99.5756 44.6105 99.5756C44.9689 99.5756 45.2825 99.6428 45.5513 99.7772C45.8201 99.9116 46.0377 100.1 46.2041 100.344V97.5404H47.4329V104.452H46.3385L46.2041 103.771C46.0505 103.982 45.8457 104.168 45.5897 104.328C45.3401 104.488 45.0137 104.568 44.6105 104.568ZM44.8697 103.492C45.2665 103.492 45.5897 103.361 45.8393 103.099C46.0953 102.83 46.2233 102.488 46.2233 102.072C46.2233 101.656 46.0953 101.316 45.8393 101.054C45.5897 100.785 45.2665 100.651 44.8697 100.651C44.4793 100.651 44.1561 100.782 43.9001 101.044C43.6441 101.307 43.5161 101.646 43.5161 102.062C43.5161 102.478 43.6441 102.82 43.9001 103.089C44.1561 103.358 44.4793 103.492 44.8697 103.492ZM48.6842 104.452V97.5404H49.913V100.42C50.073 100.158 50.2874 99.9532 50.5562 99.806C50.8314 99.6524 51.145 99.5756 51.497 99.5756C52.0858 99.5756 52.5402 99.7612 52.8602 100.132C53.1866 100.504 53.3498 101.048 53.3498 101.764V104.452H52.1306V101.88C52.1306 101.47 52.0474 101.156 51.881 100.939C51.721 100.721 51.465 100.612 51.113 100.612C50.7674 100.612 50.4794 100.734 50.249 100.977C50.025 101.22 49.913 101.56 49.913 101.995V104.452H48.6842ZM56.8096 104.568C56.3488 104.568 55.9328 104.462 55.5616 104.251C55.1968 104.04 54.9056 103.748 54.688 103.377C54.4768 103 54.3712 102.564 54.3712 102.072C54.3712 101.579 54.48 101.147 54.6976 100.776C54.9152 100.398 55.2064 100.104 55.5712 99.8924C55.9424 99.6812 56.3584 99.5756 56.8192 99.5756C57.2736 99.5756 57.6832 99.6812 58.048 99.8924C58.4192 100.104 58.7104 100.398 58.9216 100.776C59.1392 101.147 59.248 101.579 59.248 102.072C59.248 102.564 59.1392 103 58.9216 103.377C58.7104 103.748 58.4192 104.04 58.048 104.251C57.6768 104.462 57.264 104.568 56.8096 104.568ZM56.8096 103.502C57.1296 103.502 57.408 103.384 57.6448 103.147C57.8816 102.904 58 102.545 58 102.072C58 101.598 57.8816 101.243 57.6448 101.006C57.408 100.763 57.1328 100.641 56.8192 100.641C56.4928 100.641 56.2112 100.763 55.9744 101.006C55.744 101.243 55.6288 101.598 55.6288 102.072C55.6288 102.545 55.744 102.904 55.9744 103.147C56.2112 103.384 56.4896 103.502 56.8096 103.502ZM60.3467 104.452V97.5404H61.5755V104.452H60.3467ZM65.0198 104.568C64.5718 104.568 64.1718 104.459 63.8198 104.241C63.4678 104.024 63.1894 103.726 62.9846 103.348C62.7798 102.971 62.6774 102.542 62.6774 102.062C62.6774 101.582 62.7798 101.156 62.9846 100.785C63.1894 100.408 63.4678 100.113 63.8198 99.902C64.1718 99.6844 64.5718 99.5756 65.0198 99.5756C65.3782 99.5756 65.6918 99.6428 65.9606 99.7772C66.2294 99.9116 66.447 100.1 66.6134 100.344V97.5404H67.8422V104.452H66.7478L66.6134 103.771C66.4598 103.982 66.255 104.168 65.999 104.328C65.7494 104.488 65.423 104.568 65.0198 104.568ZM65.279 103.492C65.6758 103.492 65.999 103.361 66.2486 103.099C66.5046 102.83 66.6326 102.488 66.6326 102.072C66.6326 101.656 66.5046 101.316 66.2486 101.054C65.999 100.785 65.6758 100.651 65.279 100.651C64.8886 100.651 64.5654 100.782 64.3094 101.044C64.0534 101.307 63.9254 101.646 63.9254 102.062C63.9254 102.478 64.0534 102.82 64.3094 103.089C64.5654 103.358 64.8886 103.492 65.279 103.492ZM71.4071 104.568C70.9271 104.568 70.5015 104.465 70.1303 104.26C69.7591 104.056 69.4679 103.768 69.2567 103.396C69.0455 103.025 68.9399 102.596 68.9399 102.11C68.9399 101.617 69.0423 101.179 69.2471 100.795C69.4583 100.411 69.7463 100.113 70.1111 99.902C70.4823 99.6844 70.9175 99.5756 71.4167 99.5756C71.8839 99.5756 72.2967 99.678 72.6551 99.8828C73.0135 100.088 73.2919 100.369 73.4903 100.728C73.6951 101.08 73.7975 101.473 73.7975 101.908C73.7975 101.979 73.7943 102.052 73.7879 102.129C73.7879 102.206 73.7847 102.286 73.7783 102.369H70.1591C70.1847 102.74 70.3127 103.032 70.5431 103.243C70.7799 103.454 71.0647 103.56 71.3975 103.56C71.6471 103.56 71.8551 103.505 72.0215 103.396C72.1943 103.281 72.3223 103.134 72.4055 102.955H73.6535C73.5639 103.256 73.4135 103.531 73.2023 103.78C72.9975 104.024 72.7415 104.216 72.4343 104.356C72.1335 104.497 71.7911 104.568 71.4071 104.568ZM71.4167 100.574C71.1159 100.574 70.8503 100.66 70.6199 100.833C70.3895 101 70.2423 101.256 70.1783 101.601H72.5495C72.5303 101.288 72.4151 101.038 72.2039 100.852C71.9927 100.667 71.7303 100.574 71.4167 100.574ZM74.831 104.452V99.6908H75.9254L76.0406 100.584C76.2134 100.276 76.447 100.033 76.7414 99.854C77.0422 99.6684 77.3942 99.5756 77.7974 99.5756V100.872H77.4518C77.183 100.872 76.943 100.913 76.7318 100.996C76.5206 101.08 76.3542 101.224 76.2326 101.428C76.1174 101.633 76.0598 101.918 76.0598 102.283V104.452H74.831ZM80.9536 104.452V97.7324H82.1824L85.3408 102.465V97.7324H86.5696V104.452H85.3408L82.1824 99.7292V104.452H80.9536ZM89.4851 104.568C89.0755 104.568 88.7395 104.504 88.4771 104.376C88.2147 104.241 88.0195 104.065 87.8915 103.848C87.7635 103.63 87.6995 103.39 87.6995 103.128C87.6995 102.686 87.8723 102.328 88.2179 102.052C88.5635 101.777 89.0819 101.64 89.7731 101.64H90.9827V101.524C90.9827 101.198 90.8899 100.958 90.7043 100.804C90.5187 100.651 90.2883 100.574 90.0131 100.574C89.7635 100.574 89.5459 100.635 89.3603 100.756C89.1747 100.872 89.0595 101.044 89.0147 101.275H87.8147C87.8467 100.929 87.9619 100.628 88.1603 100.372C88.3651 100.116 88.6275 99.9212 88.9475 99.7868C89.2675 99.646 89.6259 99.5756 90.0227 99.5756C90.7011 99.5756 91.2355 99.7452 91.6259 100.084C92.0163 100.424 92.2115 100.904 92.2115 101.524V104.452H91.1651L91.0499 103.684C90.9091 103.94 90.7107 104.152 90.4547 104.318C90.2051 104.484 89.8819 104.568 89.4851 104.568ZM89.7635 103.608C90.1155 103.608 90.3875 103.492 90.5795 103.262C90.7779 103.032 90.9027 102.747 90.9539 102.408H89.9075C89.5811 102.408 89.3475 102.468 89.2067 102.59C89.0659 102.705 88.9955 102.849 88.9955 103.022C88.9955 103.208 89.0659 103.352 89.2067 103.454C89.3475 103.556 89.5331 103.608 89.7635 103.608ZM93.3842 104.452V99.6908H94.469L94.5746 100.334C94.7282 100.104 94.9298 99.9212 95.1794 99.7868C95.4354 99.646 95.7298 99.5756 96.0626 99.5756C96.7986 99.5756 97.3202 99.8604 97.6274 100.43C97.8002 100.168 98.0306 99.9596 98.3186 99.806C98.613 99.6524 98.933 99.5756 99.2786 99.5756C99.8994 99.5756 100.376 99.7612 100.709 100.132C101.042 100.504 101.208 101.048 101.208 101.764V104.452H99.9794V101.88C99.9794 101.47 99.8994 101.156 99.7394 100.939C99.5858 100.721 99.3458 100.612 99.0194 100.612C98.6866 100.612 98.4178 100.734 98.213 100.977C98.0146 101.22 97.9154 101.56 97.9154 101.995V104.452H96.6866V101.88C96.6866 101.47 96.6066 101.156 96.4466 100.939C96.2866 100.721 96.0402 100.612 95.7074 100.612C95.381 100.612 95.1154 100.734 94.9106 100.977C94.7122 101.22 94.613 101.56 94.613 101.995V104.452H93.3842ZM104.688 104.568C104.208 104.568 103.783 104.465 103.412 104.26C103.04 104.056 102.749 103.768 102.538 103.396C102.327 103.025 102.221 102.596 102.221 102.11C102.221 101.617 102.324 101.179 102.528 100.795C102.74 100.411 103.028 100.113 103.392 99.902C103.764 99.6844 104.199 99.5756 104.698 99.5756C105.165 99.5756 105.578 99.678 105.936 99.8828C106.295 100.088 106.573 100.369 106.772 100.728C106.976 101.08 107.079 101.473 107.079 101.908C107.079 101.979 107.076 102.052 107.069 102.129C107.069 102.206 107.066 102.286 107.06 102.369H103.44C103.466 102.74 103.594 103.032 103.824 103.243C104.061 103.454 104.346 103.56 104.679 103.56C104.928 103.56 105.136 103.505 105.303 103.396C105.476 103.281 105.604 103.134 105.687 102.955H106.935C106.845 103.256 106.695 103.531 106.484 103.78C106.279 104.024 106.023 104.216 105.716 104.356C105.415 104.497 105.072 104.568 104.688 104.568ZM104.698 100.574C104.397 100.574 104.132 100.66 103.901 100.833C103.671 101 103.524 101.256 103.46 101.601H105.831C105.812 101.288 105.696 101.038 105.485 100.852C105.274 100.667 105.012 100.574 104.698 100.574Z" fill="#83828D"/>
<path d="M199.481 105.632C198.813 105.632 198.253 105.478 197.801 105.17C197.353 104.858 197.017 104.366 196.793 103.694C196.569 103.018 196.457 102.134 196.457 101.042C196.457 99.9664 196.569 99.1004 196.793 98.4444C197.017 97.7844 197.353 97.3044 197.801 97.0044C198.253 96.7044 198.813 96.5544 199.481 96.5544C200.153 96.5544 200.713 96.7044 201.161 97.0044C201.609 97.3044 201.945 97.7844 202.169 98.4444C202.393 99.1004 202.505 99.9664 202.505 101.042C202.505 102.134 202.393 103.018 202.169 103.694C201.945 104.366 201.609 104.858 201.161 105.17C200.713 105.478 200.153 105.632 199.481 105.632ZM199.481 104.636C199.789 104.636 200.061 104.578 200.297 104.462C200.537 104.346 200.737 104.152 200.897 103.88C201.057 103.608 201.177 103.242 201.257 102.782C201.341 102.318 201.383 101.738 201.383 101.042C201.383 100.358 201.341 99.7924 201.257 99.3444C201.177 98.8924 201.055 98.5364 200.891 98.2764C200.731 98.0124 200.533 97.8264 200.297 97.7184C200.061 97.6064 199.789 97.5504 199.481 97.5504C199.173 97.5504 198.901 97.6064 198.665 97.7184C198.429 97.8264 198.229 98.0124 198.065 98.2764C197.905 98.5364 197.783 98.8924 197.699 99.3444C197.619 99.7924 197.579 100.358 197.579 101.042C197.579 101.738 197.619 102.318 197.699 102.782C197.783 103.242 197.905 103.608 198.065 103.88C198.229 104.152 198.429 104.346 198.665 104.462C198.901 104.578 199.173 104.636 199.481 104.636ZM199.481 101.894C199.269 101.89 199.117 101.818 199.025 101.678C198.937 101.534 198.893 101.33 198.893 101.066C198.893 100.806 198.937 100.604 199.025 100.46C199.117 100.316 199.269 100.244 199.481 100.244C199.693 100.244 199.843 100.316 199.931 100.46C200.023 100.604 200.069 100.806 200.069 101.066C200.069 101.33 200.023 101.534 199.931 101.678C199.843 101.818 199.693 101.89 199.481 101.894ZM205.134 105.452C205.366 105.272 205.626 105.058 205.914 104.81C206.202 104.562 206.494 104.286 206.79 103.982C207.086 103.674 207.36 103.34 207.612 102.98C207.864 102.616 208.07 102.232 208.23 101.828C208.39 101.42 208.478 100.992 208.494 100.544L208.584 100.55C208.512 100.842 208.406 101.108 208.266 101.348C208.13 101.584 207.964 101.79 207.768 101.966C207.572 102.138 207.35 102.272 207.102 102.368C206.858 102.46 206.592 102.506 206.304 102.506C205.772 102.506 205.296 102.382 204.876 102.134C204.46 101.886 204.132 101.542 203.892 101.102C203.656 100.662 203.536 100.154 203.532 99.5784C203.532 99.0784 203.614 98.6404 203.778 98.2644C203.942 97.8844 204.168 97.5684 204.456 97.3164C204.744 97.0604 205.072 96.8684 205.44 96.7404C205.808 96.6124 206.192 96.5484 206.592 96.5484C207.16 96.5484 207.674 96.6744 208.134 96.9264C208.598 97.1784 208.966 97.5684 209.238 98.0964C209.514 98.6204 209.652 99.2944 209.652 100.118C209.652 100.782 209.554 101.396 209.358 101.96C209.162 102.524 208.914 103.032 208.614 103.484C208.318 103.932 208.012 104.322 207.696 104.654C207.38 104.986 207.102 105.252 206.862 105.452H205.134ZM206.52 101.498C206.84 101.498 207.12 101.45 207.36 101.354C207.604 101.254 207.814 101.124 207.99 100.964C208.166 100.8 208.312 100.626 208.428 100.442C208.448 100.41 208.46 100.34 208.464 100.232C208.472 100.12 208.476 100.004 208.476 99.8844C208.476 99.4364 208.402 99.0384 208.254 98.6904C208.106 98.3424 207.888 98.0704 207.6 97.8744C207.316 97.6744 206.968 97.5744 206.556 97.5744C206.188 97.5744 205.862 97.6504 205.578 97.8024C205.298 97.9504 205.08 98.1684 204.924 98.4564C204.768 98.7404 204.69 99.0844 204.69 99.4884C204.694 100.092 204.852 100.578 205.164 100.946C205.48 101.314 205.932 101.498 206.52 101.498ZM211.381 106.622L215.245 95.3064H216.361L212.497 106.622H211.381ZM217.935 105.452C218.059 105.308 218.167 105.182 218.259 105.074C218.355 104.966 218.451 104.86 218.547 104.756C218.643 104.648 218.753 104.528 218.877 104.396C219.001 104.264 219.151 104.102 219.327 103.91C219.503 103.718 219.719 103.482 219.975 103.202C220.231 102.922 220.539 102.58 220.899 102.176C221.283 101.748 221.609 101.37 221.877 101.042C222.145 100.71 222.349 100.392 222.489 100.088C222.629 99.7844 222.699 99.4604 222.699 99.1164C222.699 98.6444 222.569 98.2644 222.309 97.9764C222.053 97.6884 221.657 97.5444 221.121 97.5444C220.813 97.5444 220.527 97.6024 220.263 97.7184C219.999 97.8344 219.785 98.0224 219.621 98.2824C219.461 98.5424 219.375 98.8904 219.363 99.3264C219.359 99.3784 219.359 99.4344 219.363 99.4944C219.367 99.5504 219.371 99.6084 219.375 99.6684H218.277C218.265 99.5964 218.255 99.5244 218.247 99.4524C218.243 99.3804 218.241 99.3124 218.241 99.2484C218.241 98.7844 218.315 98.3844 218.463 98.0484C218.611 97.7084 218.817 97.4284 219.081 97.2084C219.345 96.9844 219.653 96.8184 220.005 96.7104C220.361 96.6024 220.743 96.5484 221.151 96.5484C222.015 96.5484 222.679 96.7724 223.143 97.2204C223.611 97.6644 223.845 98.2744 223.845 99.0504C223.845 99.5024 223.769 99.9104 223.617 100.274C223.465 100.634 223.257 100.982 222.993 101.318C222.729 101.65 222.429 102.004 222.093 102.38C221.761 102.752 221.479 103.064 221.247 103.316C221.015 103.568 220.819 103.778 220.659 103.946C220.503 104.11 220.371 104.252 220.263 104.372C220.159 104.488 220.067 104.6 219.987 104.708C220.111 104.58 220.259 104.506 220.431 104.486C220.603 104.462 220.839 104.45 221.139 104.45H223.983V105.452H217.935ZM228.34 105.632C227.908 105.632 227.504 105.576 227.128 105.464C226.752 105.356 226.422 105.188 226.138 104.96C225.858 104.728 225.642 104.434 225.49 104.078C225.342 103.722 225.276 103.298 225.292 102.806H226.438C226.434 103.378 226.59 103.828 226.906 104.156C227.222 104.48 227.7 104.64 228.34 104.636C228.892 104.632 229.344 104.496 229.696 104.228C230.052 103.96 230.23 103.586 230.23 103.106C230.23 102.51 230.05 102.082 229.69 101.822C229.334 101.562 228.868 101.432 228.292 101.432H227.332V100.436H228.31C228.634 100.436 228.914 100.368 229.15 100.232C229.386 100.092 229.568 99.9084 229.696 99.6804C229.824 99.4484 229.888 99.1984 229.888 98.9304C229.888 98.4904 229.75 98.1504 229.474 97.9104C229.202 97.6664 228.824 97.5444 228.34 97.5444C227.852 97.5404 227.46 97.6764 227.164 97.9524C226.868 98.2244 226.738 98.6504 226.774 99.2304H225.622C225.614 98.6224 225.718 98.1204 225.934 97.7244C226.15 97.3284 226.464 97.0344 226.876 96.8424C227.288 96.6464 227.778 96.5484 228.346 96.5484C228.946 96.5484 229.444 96.6464 229.84 96.8424C230.236 97.0384 230.532 97.3124 230.728 97.6644C230.924 98.0164 231.022 98.4244 231.022 98.8884C231.022 99.1804 230.964 99.4704 230.848 99.7584C230.732 100.042 230.546 100.29 230.29 100.502C230.038 100.71 229.702 100.846 229.282 100.91C229.954 100.962 230.468 101.174 230.824 101.546C231.184 101.918 231.364 102.436 231.364 103.1C231.364 103.644 231.236 104.106 230.98 104.486C230.728 104.862 230.374 105.148 229.918 105.344C229.466 105.536 228.94 105.632 228.34 105.632Z" fill="#83828D"/>
<path d="M65.3115 26.057H62.7377C61.9596 26.057 61.361 26.2651 61.0019 26.9416L56.0938 36.6718H59.5654C59.5654 36.6718 60.1639 35.371 60.2836 35.0588C60.6428 35.0588 64.0545 35.0588 64.5334 35.0588C64.6531 35.423 64.9524 36.6198 64.9524 36.6198H68.0649L65.3115 26.057ZM61.2413 32.8734C61.5406 32.249 62.5581 29.9075 62.5581 29.9075C62.5581 29.9595 62.8574 29.2831 62.9771 28.9188L63.2166 29.8555C63.2166 29.8555 63.875 32.4051 63.9947 32.9254H61.2413V32.8734Z" fill="#3362AB"/>
<path d="M56.3334 33.1856C56.3334 35.371 54.0589 36.8279 50.5274 36.8279C49.0311 36.8279 47.5945 36.5677 46.8164 36.2555L47.2952 33.862L47.7142 34.0181C48.7916 34.4344 49.5099 34.5905 50.8267 34.5905C51.7844 34.5905 52.802 34.2783 52.802 33.5498C52.802 33.0815 52.383 32.7693 51.0661 32.249C49.8092 31.7286 48.1332 30.8961 48.1332 29.3871C48.1332 27.3058 50.4676 25.9009 53.7596 25.9009C55.0166 25.9009 56.094 26.109 56.7524 26.3692L56.2736 28.6587L56.0342 28.4505C55.4356 28.2424 54.6575 28.0343 53.5202 28.0343C52.2633 28.0863 51.6647 28.5546 51.6647 28.9709C51.6647 29.4392 52.383 29.8034 53.5202 30.2717C55.4356 31.0522 56.3334 31.9368 56.3334 33.1856Z" fill="#3362AB"/>
<path d="M27.124 26.1611L27.1839 25.953H32.3315C33.0497 25.953 33.5884 26.1611 33.768 26.8376L34.9052 31.5206C33.768 29.023 31.1343 26.9937 27.124 26.1611Z" fill="#F9B50B"/>
<path d="M42.1477 26.057L36.9403 36.6198H33.4088L30.416 27.7741C32.5708 28.9709 34.3665 30.8441 35.0249 32.145L35.384 33.2377L38.6162 26.005H42.1477V26.057Z" fill="#3362AB"/>
<path d="M43.5246 26.005H46.8167L44.7217 36.6198H41.4297L43.5246 26.005Z" fill="#3362AB"/>
<path d="M196.136 24.6487C196.136 20.9423 199.451 17.9377 203.541 17.9377H227.112C231.202 17.9377 234.518 20.9424 234.518 24.6487V37.9199C234.518 41.6263 231.202 44.6309 227.112 44.6309H203.541C199.451 44.6309 196.136 41.6263 196.136 37.9199V24.6487Z" fill="#EDECEE"/>
<mask id="mask0_76_3473" style="mask-type:alpha" maskUnits="userSpaceOnUse" x="196" y="17" width="39" height="28">
<path d="M196.137 24.6487C196.137 20.9423 199.452 17.9377 203.542 17.9377H227.113C231.203 17.9377 234.519 20.9424 234.519 24.6487V37.9199C234.519 41.6263 231.203 44.6309 227.113 44.6309H203.542C199.452 44.6309 196.137 41.6263 196.137 37.9199V24.6487Z" fill="#83828D"/>
</mask>
<g mask="url(#mask0_76_3473)">
<path fill-rule="evenodd" clip-rule="evenodd" d="M214.736 37.4875V48.818H215.92V37.4875H222.482C223.323 39.1671 225.18 40.3026 227.274 40.3026H242.155C245.008 40.3026 247.423 38.1941 247.423 35.4737V31.8762H248.633V30.6924H247.423V27.0949C247.423 24.3744 245.008 22.266 242.155 22.266H227.274C225.18 22.266 223.323 23.4014 222.482 25.0809H215.92V13.7505H214.736V25.0809H208.174C207.334 23.4014 205.476 22.266 203.382 22.266H188.501C185.648 22.266 183.233 24.3744 183.233 27.0949V30.6924H182.023V31.8762H183.233V35.4737C183.233 38.1941 185.648 40.3026 188.501 40.3026H203.382C205.476 40.3026 207.334 39.1671 208.174 37.4875H214.736ZM215.92 36.3037H222.006V31.8762H215.92V36.3037ZM214.736 31.8762V36.3037H208.65V31.8762H214.736ZM215.92 30.6924H222.006V26.2647H215.92V30.6924ZM214.736 26.2647V30.6924H208.65V26.2647H214.736ZM184.417 35.4737V31.8762H207.466V35.4737C207.466 37.4333 205.694 39.1188 203.382 39.1188H188.501C186.189 39.1188 184.417 37.4333 184.417 35.4737ZM184.417 30.6924H207.466V27.0949C207.466 25.1352 205.694 23.4497 203.382 23.4497H188.501C186.189 23.4497 184.417 25.1352 184.417 27.0949V30.6924ZM223.19 35.4737V31.8762H246.239V35.4737C246.239 37.4333 244.467 39.1188 242.155 39.1188H227.274C224.962 39.1188 223.19 37.4333 223.19 35.4737ZM223.19 30.6924H246.239V27.0949C246.239 25.1352 244.467 23.4497 242.155 23.4497H227.274C224.962 23.4497 223.19 25.1352 223.19 27.0949V30.6924Z" fill="#A8A8A9"/>
</g>
</svg>
