<svg width="17" height="16" viewBox="0 0 17 16" fill="none" xmlns="http://www.w3.org/2000/svg">
<rect width="17" height="16" fill="#F5F5F5"/>
<g clip-path="url(#clip0_12_87)">
<rect width="1920" height="1714" transform="translate(-1073 -756)" fill="white"/>
<g filter="url(#filter0_f_12_87)">
<ellipse cx="-799.5" cy="-157" rx="380" ry="88.5" transform="rotate(90 -799.5 -157)" fill="#FB406C"/>
</g>
<g filter="url(#filter1_f_12_87)">
<ellipse cx="586.5" cy="-50" rx="380" ry="88.5" transform="rotate(-90 586.5 -50)" fill="#1BAACC"/>
</g>
<g filter="url(#filter2_d_12_87)">
<rect width="1470" height="836" transform="translate(-848 -590)" fill="white"/>
<g filter="url(#filter3_d_12_87)">
<rect x="-32.25" y="-12.5" width="240" height="41" rx="4" fill="#2066B9" shape-rendering="crispEdges"/>
<g clip-path="url(#clip1_12_87)">
<path d="M14.6796 0.318359H2.17626C1.41131 0.318359 0.773438 0.956236 0.773438 1.72119V14.2246C0.773438 14.9895 1.41131 15.6274 2.17626 15.6274H8.42795V9.24863H6.51432V7.335H8.42795V5.42137C8.42795 3.82668 9.06583 2.86987 10.9794 2.86987H12.8931V4.7835H12.0633C11.4902 4.7835 10.9794 5.29429 10.9794 5.86739V7.335H13.5309L13.212 9.24863H10.9794V15.6274H14.6796C15.4446 15.6274 16.0825 14.9895 16.0825 14.2246V1.72119C16.0825 0.956236 15.4446 0.318359 14.6796 0.318359Z" fill="white"/>
</g>
</g>
</g>
</g>
<defs>
<filter id="filter0_f_12_87" x="-2488" y="-2137" width="3377" height="3960" filterUnits="userSpaceOnUse" color-interpolation-filters="sRGB">
<feFlood flood-opacity="0" result="BackgroundImageFix"/>
<feBlend mode="normal" in="SourceGraphic" in2="BackgroundImageFix" result="shape"/>
<feGaussianBlur stdDeviation="800" result="effect1_foregroundBlur_12_87"/>
</filter>
<filter id="filter1_f_12_87" x="-1102" y="-2030" width="3377" height="3960" filterUnits="userSpaceOnUse" color-interpolation-filters="sRGB">
<feFlood flood-opacity="0" result="BackgroundImageFix"/>
<feBlend mode="normal" in="SourceGraphic" in2="BackgroundImageFix" result="shape"/>
<feGaussianBlur stdDeviation="800" result="effect1_foregroundBlur_12_87"/>
</filter>
<filter id="filter2_d_12_87" x="-873" y="-612" width="1520" height="886" filterUnits="userSpaceOnUse" color-interpolation-filters="sRGB">
<feFlood flood-opacity="0" result="BackgroundImageFix"/>
<feColorMatrix in="SourceAlpha" type="matrix" values="0 0 0 0 0 0 0 0 0 0 0 0 0 0 0 0 0 0 127 0" result="hardAlpha"/>
<feOffset dy="3"/>
<feGaussianBlur stdDeviation="12.5"/>
<feComposite in2="hardAlpha" operator="out"/>
<feColorMatrix type="matrix" values="0 0 0 0 0 0 0 0 0 0 0 0 0 0 0 0 0 0 0.1 0"/>
<feBlend mode="normal" in2="BackgroundImageFix" result="effect1_dropShadow_12_87"/>
<feBlend mode="normal" in="SourceGraphic" in2="effect1_dropShadow_12_87" result="shape"/>
</filter>
<filter id="filter3_d_12_87" x="-47.25" y="-22.5" width="270" height="71" filterUnits="userSpaceOnUse" color-interpolation-filters="sRGB">
<feFlood flood-opacity="0" result="BackgroundImageFix"/>
<feColorMatrix in="SourceAlpha" type="matrix" values="0 0 0 0 0 0 0 0 0 0 0 0 0 0 0 0 0 0 127 0" result="hardAlpha"/>
<feOffset dy="5"/>
<feGaussianBlur stdDeviation="7.5"/>
<feComposite in2="hardAlpha" operator="out"/>
<feColorMatrix type="matrix" values="0 0 0 0 0 0 0 0 0 0 0 0 0 0 0 0 0 0 0.1 0"/>
<feBlend mode="normal" in2="BackgroundImageFix" result="effect1_dropShadow_12_87"/>
<feBlend mode="normal" in="SourceGraphic" in2="effect1_dropShadow_12_87" result="shape"/>
</filter>
<clipPath id="clip0_12_87">
<rect width="1920" height="1714" fill="white" transform="translate(-1073 -756)"/>
</clipPath>
<clipPath id="clip1_12_87">
<rect width="16" height="16" fill="white" transform="translate(0.125)"/>
</clipPath>
</defs>
</svg>
