<svg width="54" height="38" viewBox="0 0 54 38" fill="none" xmlns="http://www.w3.org/2000/svg">
<rect y="0.4375" width="54" height="37" rx="5" fill="#FB406C"/>
<path d="M15.8 11.5441H15.9136C16.0882 12.2486 16.4864 12.8733 17.0454 13.3195C17.6043 13.7656 18.2921 14.0078 19 14.0078C19.7079 14.0078 20.3957 13.7656 20.9546 13.3195C21.5136 12.8733 21.9118 12.2486 22.0864 11.5441H38.2C38.4122 11.5441 38.6157 11.4576 38.7657 11.3035C38.9157 11.1495 39 10.9405 39 10.7227C39 10.5048 38.9157 10.2958 38.7657 10.1418C38.6157 9.98773 38.4122 9.90118 38.2 9.90118H22.0864C21.9118 9.19669 21.5136 8.57202 20.9546 8.12587C20.3957 7.67971 19.7079 7.4375 19 7.4375C18.2921 7.4375 17.6043 7.67971 17.0454 8.12587C16.4864 8.57202 16.0882 9.19669 15.9136 9.90118H15.8C15.5878 9.90118 15.3843 9.98773 15.2343 10.1418C15.0843 10.2958 15 10.5048 15 10.7227C15 10.9405 15.0843 11.1495 15.2343 11.3035C15.3843 11.4576 15.5878 11.5441 15.8 11.5441ZM19 9.0797C19.3165 9.0797 19.6258 9.17606 19.8889 9.35659C20.152 9.53712 20.3571 9.79372 20.4782 10.0939C20.5993 10.3941 20.631 10.7245 20.5693 11.0432C20.5075 11.3619 20.3551 11.6546 20.1314 11.8844C19.9076 12.1142 19.6225 12.2707 19.3121 12.3341C19.0018 12.3975 18.6801 12.3649 18.3877 12.2406C18.0953 12.1162 17.8455 11.9056 17.6696 11.6354C17.4938 11.3653 17.4 11.0476 17.4 10.7227C17.4 10.2869 17.5686 9.86903 17.8686 9.56091C18.1687 9.2528 18.5757 9.0797 19 9.0797ZM38.2 18.116H38.0864C37.9118 17.4115 37.5136 16.7869 36.9546 16.3407C36.3957 15.8945 35.7079 15.6523 35 15.6523C34.2921 15.6523 33.6043 15.8945 33.0454 16.3407C32.4864 16.7869 32.0882 17.4115 31.9136 18.116H15.8C15.5878 18.116 15.3843 18.2026 15.2343 18.3566C15.0843 18.5107 15 18.7196 15 18.9375C15 19.1554 15.0843 19.3643 15.2343 19.5184C15.3843 19.6724 15.5878 19.759 15.8 19.759H31.9136C32.0882 20.4635 32.4864 21.0881 33.0454 21.5343C33.6043 21.9805 34.2921 22.2227 35 22.2227C35.7079 22.2227 36.3957 21.9805 36.9546 21.5343C37.5136 21.0881 37.9118 20.4635 38.0864 19.759H38.2C38.4122 19.759 38.6157 19.6724 38.7657 19.5184C38.9157 19.3643 39 19.1554 39 18.9375C39 18.7196 38.9157 18.5107 38.7657 18.3566C38.6157 18.2026 38.4122 18.116 38.2 18.116ZM35 20.5805C34.6835 20.5805 34.3742 20.4841 34.1111 20.3036C33.848 20.123 33.6429 19.8664 33.5218 19.5662C33.4007 19.266 33.369 18.9357 33.4307 18.617C33.4925 18.2983 33.6449 18.0055 33.8686 17.7757C34.0924 17.546 34.3775 17.3895 34.6879 17.3261C34.9982 17.2627 35.3199 17.2952 35.6123 17.4196C35.9047 17.5439 36.1545 17.7545 36.3304 18.0247C36.5062 18.2949 36.6 18.6126 36.6 18.9375C36.6 19.3732 36.4314 19.7911 36.1314 20.0993C35.8313 20.4074 35.4243 20.5805 35 20.5805ZM38.2 26.3309H30.0864C29.9118 25.6264 29.5136 25.0017 28.9546 24.5555C28.3957 24.1094 27.7079 23.8672 27 23.8672C26.2921 23.8672 25.6043 24.1094 25.0454 24.5555C24.4864 25.0017 24.0882 25.6264 23.9136 26.3309H15.8C15.5878 26.3309 15.3843 26.4174 15.2343 26.5715C15.0843 26.7255 15 26.9345 15 27.1523C15 27.3702 15.0843 27.5792 15.2343 27.7332C15.3843 27.8873 15.5878 27.9738 15.8 27.9738H23.9136C24.0882 28.6783 24.4864 29.303 25.0454 29.7491C25.6043 30.1953 26.2921 30.4375 27 30.4375C27.7079 30.4375 28.3957 30.1953 28.9546 29.7491C29.5136 29.303 29.9118 28.6783 30.0864 27.9738H38.2C38.4122 27.9738 38.6157 27.8873 38.7657 27.7332C38.9157 27.5792 39 27.3702 39 27.1523C39 26.9345 38.9157 26.7255 38.7657 26.5715C38.6157 26.4174 38.4122 26.3309 38.2 26.3309ZM27 28.7953C26.6835 28.7953 26.3742 28.6989 26.1111 28.5184C25.848 28.3379 25.6429 28.0813 25.5218 27.7811C25.4007 27.4809 25.369 27.1505 25.4307 26.8318C25.4925 26.5131 25.6449 26.2204 25.8686 25.9906C26.0924 25.7608 26.3775 25.6043 26.6879 25.5409C26.9982 25.4775 27.3199 25.5101 27.6123 25.6344C27.9047 25.7588 28.1545 25.9694 28.3304 26.2395C28.5062 26.5097 28.6 26.8274 28.6 27.1523C28.6 27.5881 28.4314 28.006 28.1314 28.3141C27.8313 28.6222 27.4243 28.7953 27 28.7953Z" fill="#FEFEFE"/>
</svg>
