<svg width="14" height="17" viewBox="0 0 14 17" fill="none" xmlns="http://www.w3.org/2000/svg">
<g clip-path="url(#clip0_73_988)">
<path d="M8.0022 5.84155V9.84155C8.0022 9.92489 7.97541 9.99334 7.92184 10.0469C7.86827 10.1005 7.79982 10.1273 7.71648 10.1273H4.85934C4.77601 10.1273 4.70755 10.1005 4.65398 10.0469C4.60041 9.99334 4.57363 9.92489 4.57363 9.84155V9.27012C4.57363 9.18679 4.60041 9.11834 4.65398 9.06477C4.70755 9.0112 4.77601 8.98441 4.85934 8.98441H6.85934V5.84155C6.85934 5.75822 6.88613 5.68977 6.9397 5.6362C6.99327 5.58262 7.06172 5.55584 7.14505 5.55584H7.71648C7.79982 5.55584 7.86827 5.58262 7.92184 5.6362C7.97541 5.68977 8.0022 5.75822 8.0022 5.84155ZM11.0647 11.4219C11.0647 11.4219 11.1733 11.2359 11.3906 10.8639C11.6079 10.4918 11.7165 9.86536 11.7165 8.98441C11.7165 8.10346 11.4992 7.29096 11.0647 6.54691C10.6302 5.80286 10.0409 5.21358 9.29684 4.77905C8.55279 4.34453 7.74029 4.12727 6.85934 4.12727C5.97839 4.12727 5.16589 4.34453 4.42184 4.77905C3.67779 5.21358 3.08851 5.80286 2.65398 6.54691C2.21946 7.29096 2.0022 8.10346 2.0022 8.98441C2.0022 9.86536 2.21946 10.6779 2.65398 11.4219C3.08851 12.166 3.67779 12.7552 4.42184 13.1898C5.16589 13.6243 5.97839 13.8416 6.85934 13.8416C7.74029 13.8416 8.55279 13.6243 9.29684 13.1898C10.0409 12.7552 10.6302 12.166 11.0647 11.4219ZM12.7968 5.54245C12.7968 5.54245 12.9501 5.80509 13.2567 6.33039C13.5632 6.85569 13.7165 7.74036 13.7165 8.98441C13.7165 10.2285 13.4099 11.3758 12.7968 12.4264C12.1837 13.477 11.3519 14.3088 10.3013 14.9219C9.25071 15.535 8.10339 15.8416 6.85934 15.8416C5.61529 15.8416 4.46797 15.535 3.41738 14.9219C2.36678 14.3088 1.53494 13.477 0.92184 12.4264C0.308745 11.3758 0.00219727 10.2285 0.00219727 8.98441C0.00219727 7.74036 0.308745 6.59304 0.92184 5.54245C1.53494 4.49185 2.36678 3.66 3.41738 3.04691C4.46797 2.43381 5.61529 2.12727 6.85934 2.12727C8.10339 2.12727 9.25071 2.43381 10.3013 3.04691C11.3519 3.66 12.1837 4.49185 12.7968 5.54245Z" fill="#1BAACC"/>
</g>
<defs>
<clipPath id="clip0_73_988">
<rect width="13.7188" height="16" fill="white" transform="matrix(1 0 0 -1 0 16.9844)"/>
</clipPath>
</defs>
</svg>
