<svg width="17" height="16" viewBox="0 0 17 16" fill="none" xmlns="http://www.w3.org/2000/svg">
<rect width="17" height="16" fill="#F5F5F5"/>
<g clip-path="url(#clip0_12_87)">
<rect width="1920" height="1714" transform="translate(-1341 -756)" fill="white"/>
<g filter="url(#filter0_f_12_87)">
<ellipse cx="-1067.5" cy="-157" rx="380" ry="88.5" transform="rotate(90 -1067.5 -157)" fill="#FB406C"/>
</g>
<g filter="url(#filter1_f_12_87)">
<ellipse cx="318.5" cy="-50" rx="380" ry="88.5" transform="rotate(-90 318.5 -50)" fill="#1BAACC"/>
</g>
<g filter="url(#filter2_d_12_87)">
<rect width="1470" height="836" transform="translate(-1116 -590)" fill="white"/>
<rect x="-40.25" y="-12.5" width="240" height="41" rx="4" fill="#D92047"/>
<g clip-path="url(#clip1_12_87)">
<path fill-rule="evenodd" clip-rule="evenodd" d="M0.886719 1.71371C0.886719 0.948761 1.51712 0.318359 2.28207 0.318359H14.8004C15.5653 0.318359 16.1957 0.948761 16.1957 1.71371V14.232C16.1957 14.997 15.5653 15.6274 14.8004 15.6274H2.28207C1.51712 15.6274 0.886719 14.997 0.886719 14.232V1.71371ZM9.55785 2.81006H6.7472C6.04454 2.81006 5.10019 2.92966 4.33523 3.56754C3.76214 4.01355 3.43822 4.72369 3.43822 5.36156C3.43822 6.44545 4.27543 7.51938 5.87012 7.4546H6.30866C6.24388 7.58167 6.18906 7.71872 6.18906 7.97287C6.18906 8.35659 6.37594 8.61573 6.5678 8.86988C6.5073 8.87603 6.44225 8.88215 6.37334 8.88864C5.71579 8.95052 4.70753 9.04541 3.9565 9.50776C3.12676 10.0186 2.86014 10.6515 2.86014 11.1623C2.86014 12.1191 3.81198 13.0759 5.79039 13.0759C8.08774 13.0759 9.37846 11.8001 9.37846 10.5244C9.37846 9.63162 8.87084 9.18356 8.33736 8.71264C8.29908 8.67885 8.26066 8.64494 8.22229 8.61075L7.70402 8.23201C7.51216 8.10493 7.32528 7.97287 7.32528 7.65393C7.32528 7.39978 7.51216 7.20792 7.70402 7.01606L7.71688 7.00605C8.2858 6.56334 8.86017 6.11638 8.86017 5.10243C8.86017 4.17487 8.33433 3.66635 7.9988 3.34187C7.96478 3.30897 7.93272 3.27796 7.90336 3.2486H8.66083L9.55785 2.81006ZM5.92992 3.2486C5.5462 3.2486 5.16497 3.45292 4.97311 3.70708C4.71896 4.02602 4.65417 4.40476 4.65417 4.72369C4.65417 5.61572 5.1575 7.13566 6.36846 7.13566C6.6874 7.13566 7.07113 6.94879 7.32528 6.75693C7.64422 6.43799 7.64422 5.99197 7.64422 5.80011C7.64422 4.77851 7.0786 3.2486 5.92992 3.2486ZM5.0927 9.50778C5.66579 9.31591 6.44071 9.30844 6.56779 9.30844H6.94652C7.96812 10.0111 8.42161 10.3998 8.42161 11.1025C8.42161 11.9322 7.70899 12.5576 6.36845 12.5576C4.90084 12.5576 3.95648 11.8599 3.95648 10.9031C3.95648 9.9598 4.75089 9.64376 5.07892 9.51326C5.08361 9.51139 5.0882 9.50957 5.0927 9.50778Z" fill="white"/>
</g>
</g>
</g>
<defs>
<filter id="filter0_f_12_87" x="-2756" y="-2137" width="3377" height="3960" filterUnits="userSpaceOnUse" color-interpolation-filters="sRGB">
<feFlood flood-opacity="0" result="BackgroundImageFix"/>
<feBlend mode="normal" in="SourceGraphic" in2="BackgroundImageFix" result="shape"/>
<feGaussianBlur stdDeviation="800" result="effect1_foregroundBlur_12_87"/>
</filter>
<filter id="filter1_f_12_87" x="-1370" y="-2030" width="3377" height="3960" filterUnits="userSpaceOnUse" color-interpolation-filters="sRGB">
<feFlood flood-opacity="0" result="BackgroundImageFix"/>
<feBlend mode="normal" in="SourceGraphic" in2="BackgroundImageFix" result="shape"/>
<feGaussianBlur stdDeviation="800" result="effect1_foregroundBlur_12_87"/>
</filter>
<filter id="filter2_d_12_87" x="-1141" y="-612" width="1520" height="886" filterUnits="userSpaceOnUse" color-interpolation-filters="sRGB">
<feFlood flood-opacity="0" result="BackgroundImageFix"/>
<feColorMatrix in="SourceAlpha" type="matrix" values="0 0 0 0 0 0 0 0 0 0 0 0 0 0 0 0 0 0 127 0" result="hardAlpha"/>
<feOffset dy="3"/>
<feGaussianBlur stdDeviation="12.5"/>
<feComposite in2="hardAlpha" operator="out"/>
<feColorMatrix type="matrix" values="0 0 0 0 0 0 0 0 0 0 0 0 0 0 0 0 0 0 0.1 0"/>
<feBlend mode="normal" in2="BackgroundImageFix" result="effect1_dropShadow_12_87"/>
<feBlend mode="normal" in="SourceGraphic" in2="effect1_dropShadow_12_87" result="shape"/>
</filter>
<clipPath id="clip0_12_87">
<rect width="1920" height="1714" fill="white" transform="translate(-1341 -756)"/>
</clipPath>
<clipPath id="clip1_12_87">
<rect width="16" height="16" fill="white" transform="translate(0.703125)"/>
</clipPath>
</defs>
</svg>
