<svg width="19" height="20" viewBox="0 0 19 20" fill="none" xmlns="http://www.w3.org/2000/svg">
<path d="M18.4972 16.4084L14.3114 12.2228C15.0402 11.0427 15.4808 9.66615 15.4808 8.17766C15.4808 3.90271 12.0155 0.4375 7.7404 0.4375C3.46532 0.4375 0 3.90271 0 8.17766C0 12.4526 3.46532 15.9178 7.7404 15.9178C9.22894 15.9178 10.6055 15.4772 11.7845 14.7496L15.9714 18.9353C16.3084 19.2611 16.7599 19.4414 17.2286 19.4374C17.6973 19.4334 18.1456 19.2454 18.477 18.9139C18.8084 18.5824 18.9962 18.134 18.9999 17.6653C19.0037 17.1966 18.8232 16.7452 18.4972 16.4084ZM7.7404 13.5362C4.78119 13.5362 2.38166 11.1368 2.38166 8.17766C2.38166 5.21854 4.78119 2.81909 7.7404 2.81909C10.6996 2.81909 13.0991 5.21854 13.0991 8.17766C13.0991 11.1368 10.6996 13.5362 7.7404 13.5362Z" fill="#FB406C"/>
</svg>
